<?xml version="1.0" encoding="UTF-8"?>
<svg id="Final_Favicon" data-name="Final Favicon" xmlns="http://www.w3.org/2000/svg" width="160" height="160" viewBox="0 0 160 160">
  <path d="M71.77,70.64c0,.93-.16,1.78-.48,2.58-.32.79-.76,1.48-1.32,2.06s-1.22,1.03-1.99,1.36c-.77.33-1.6.5-2.49.5H20.52c-1.15,0-2.39-.14-3.72-.42-1.33-.28-2.64-.72-3.93-1.31s-2.53-1.36-3.72-2.3c-1.18-.94-2.23-2.08-3.14-3.42s-1.64-2.89-2.18-4.66c-.54-1.77-.82-3.76-.82-5.97V24.17c0-1.19.14-2.47.41-3.84.27-1.37.7-2.73,1.27-4.06s1.33-2.62,2.25-3.84c.93-1.22,2.04-2.3,3.33-3.25s2.79-1.69,4.48-2.25c1.69-.56,3.61-.84,5.75-.84h50.67v12.88H20.52c-1.63,0-2.88.45-3.74,1.34s-1.29,2.21-1.29,3.96v34.78c0,1.65.44,2.93,1.32,3.84.88.91,2.12,1.36,3.72,1.36h38.78v-16.15H26.13v-12.98h39.36c.89,0,1.73.17,2.49.52s1.43.82,1.99,1.41c.56.59,1,1.28,1.32,2.06.32.78.48,1.61.48,2.5v29.04Z" fill="#f59e0b"/>
  <path d="M156.98,115.83c0,2.91-.35,5.51-1.04,7.8-.7,2.29-1.64,4.31-2.82,6.06-1.19,1.75-2.56,3.25-4.1,4.49-1.55,1.24-3.17,2.26-4.86,3.04-1.69.78-3.4,1.36-5.13,1.72-1.72.36-3.35.54-4.86.54h-27.9v-12.75h27.9c1.58-.13,3.01-.47,4.29-1.01s2.38-1.27,3.3-2.18c.92-.91,1.63-2.02,2.14-3.31.51-1.29.76-2.75.76-4.39v-5.79c-.16-1.6-.49-3.07-1-4.41-.51-1.34-1.19-2.48-2.06-3.43-.87-.95-1.92-1.69-3.16-2.23s-2.66-.81-4.27-.81h-27.81c-1.65,0-2.89.44-3.75,1.32s-1.28,2.16-1.28,3.83v52.43h-12.34v-52.43c0-3.27.58-6.05,1.73-8.34,1.15-2.29,2.59-4.14,4.32-5.54,1.72-1.41,3.6-2.43,5.62-3.07,2.02-.64,3.89-.96,5.6-.96h27.9c2.78,0,5.28.37,7.5,1.1,2.21.74,4.17,1.72,5.86,2.94,1.69,1.23,3.13,2.64,4.32,4.24,1.19,1.6,2.17,3.28,2.94,5.03.77,1.75,1.34,3.52,1.68,5.3.35,1.78.52,3.46.52,5.03v5.79Z" fill="#f59e0b"/>
  <polygon points="76.72 6.08 76.72 10.69 76.72 24.71 76.72 60.9 76.72 89.46 76.72 134.44 76.72 150.89 76.72 157.1 83.28 157.1 83.28 6.08 76.72 6.08" fill="#f59e0b"/>
  <path d="M156.24,69.63c1.87-7.77-.35-21.6-.76-23.17-.4-1.57-4.44-16.64-6.21-23.43-1.77-6.78-5.6-11.84-7.42-14.82-1.82-2.97-3.29-2.43-3.29-2.43l-.12-1.2v.11c-6.87-3.79-15.99-.42-15.99-.42-1.62,4.17-12.21,1.98-12.21,1.98h-21.26s0,45.84,0,45.84l11.53.1c3.03,2.87,6.68,3.38,10.75,3.34s7.3-2.09,8.78-3.08c2.19,2.58,7.62,17.11,11.96,22.85,4.34,5.74,11.91,5.06,14.13,4.85,2.22-.21,8.23-2.77,10.1-10.54ZM123.9,29.84c0-.35.14-.66.34-.9.01-.02.01-.05.03-.07l2.17-2.61c.21-.25.58-.25.79,0l2.17,2.61s.02.05.03.07c.2.25.34.56.34.9v3.1c0,.79-.62,1.42-1.38,1.42h-3.1c-.76,0-1.38-.64-1.38-1.42v-3.1ZM117.12,40.21c0,3.63-2.85,6.57-6.36,6.57s-6.36-2.94-6.36-6.57c0-3.63,2.85-6.57,6.36-6.57,3.51,0,6.36,2.94,6.36,6.57ZM123.31,22.57l2.52,2.24c.24.21.24.6,0,.81l-2.52,2.24s-.05.02-.07.03c-.24.21-.54.35-.87.35h-3c-.76,0-1.38-.64-1.38-1.42v-3.21c0-.79.62-1.42,1.38-1.42h3c.34,0,.64.14.88.35.02.01.05.01.07.03ZM129.76,20.61c0,.35-.14.66-.34.9-.01.02-.01.05-.03.07l-2.17,2.61c-.21.25-.58.25-.79,0l-2.17-2.61s-.02-.05-.03-.07c-.2-.25-.34-.56-.34-.9v-3.1c0-.79.62-1.42,1.38-1.42h3.1c.76,0,1.38.64,1.38,1.42v3.1ZM135.68,26.83c0,.79-.62,1.42-1.38,1.42h-3c-.34,0-.64-.14-.88-.35-.02-.01-.05-.01-.07-.03l-2.52-2.24c-.24-.21-.24-.6,0-.81l2.52-2.24s.05-.02.07-.03c.24-.21.54-.35.87-.35h3c.76,0,1.38.64,1.38,1.42v3.21Z" fill="#f59e0b"/>
  <path d="M71.21,86.23h-2.08s0,0-.01,0h-.12c-1.71.03-3.41.11-5.1.27l-1.93,12.1c-1.91.13-3.66.57-5.4.95l-5.44-10.57c-3.55,1.07-6.98,2.41-10.25,4.04l2.54,12.15c-1.73.84-3.2,1.92-4.69,2.93l-9.05-7.97.65-.54c-2.99,2.27-5.79,4.78-8.37,7.52l6.31,10.52c-1.36,1.39-2.39,2.92-3.47,4.39l-11.03-4.33c-1.93,3.06-3.62,6.28-5.07,9.65l9.26,7.52c-.81,1.79-1.28,3.59-1.8,5.35l-11.53-.16c-.8,3.64-1.32,7.38-1.54,11.21l11.01,3.26c-.04.8-.02,1.58.02,2.35h42.58c-.05-.48-.08-.98-.08-1.47,0-7.3,5.53-13.24,12.49-13.65h2.12v-55.49ZM64.43,128.07c-10.57,2.23-18.88,10.84-21.01,21.77h-18.49c2.44-21.38,18.82-38.34,39.5-40.89v19.12Z" fill="#f59e0b"/>
</svg>