<?xml version="1.0" encoding="UTF-8"?>
<svg id="Final" xmlns="http://www.w3.org/2000/svg" width="63.55" height="160" viewBox="0 0 63.55 160">
  <path d="M14.91,78.79c1.87.17,8.24.72,11.89-3.95s8.22-16.5,10.06-18.59c1.24.8,3.96,2.47,7.39,2.5s6.5-.38,9.04-2.72l9.7-.08V18.66h-17.88s-8.9,1.78-10.27-1.61c0,0-7.68-2.75-13.45.34v-.09l-.1.98s-1.24-.44-2.77,1.98-4.75,6.54-6.24,12.06c-1.49,5.52-4.88,17.79-5.22,19.06-.34,1.27-2.21,12.52-.64,18.85,1.57,6.33,6.62,8.41,8.49,8.58ZM33.62,40.36c0,.64-.52,1.16-1.16,1.16h-2.61c-.64,0-1.16-.52-1.16-1.16v-2.53c0-.28.11-.53.28-.74.01-.02.01-.04.03-.06l1.82-2.12c.17-.2.49-.2.66,0l1.82,2.12s.01.04.03.06c.17.2.28.45.28.74v2.53ZM44.67,40.92c2.95,0,5.35,2.39,5.35,5.35s-2.39,5.35-5.35,5.35-5.35-2.39-5.35-5.35,2.39-5.35,5.35-5.35ZM34.17,31.9c.2-.17.45-.28.74-.28h2.53c.64,0,1.16.52,1.16,1.16v2.61c0,.64-.52,1.16-1.16,1.16h-2.53c-.28,0-.53-.11-.74-.28-.02-.01-.04-.01-.06-.03l-2.12-1.82c-.2-.17-.2-.49,0-.66l2.12-1.82s.04-.01.06-.03ZM28.69,27.8c0-.64.52-1.16,1.16-1.16h2.61c.64,0,1.16.52,1.16,1.16v2.53c0,.28-.11.53-.28.74-.01.02-.01.04-.03.06l-1.82,2.12c-.17.2-.49.2-.66,0l-1.82-2.12s-.01-.04-.03-.06c-.17-.2-.28-.45-.28-.74v-2.53ZM23.72,32.77c0-.64.52-1.16,1.16-1.16h2.53c.28,0,.53.11.74.28.02.01.04.01.06.03l2.12,1.82c.2.17.2.49,0,.66l-2.12,1.82s-.04.01-.06.03c-.2.17-.45.28-.74.28h-2.53c-.64,0-1.16-.52-1.16-1.16v-2.61Z" fill="#fff"/>
  <path d="M63.04,85.7h-1.79s0,0-.01,0h-.1c-1.48.02-2.95.1-4.4.22l-1.66,10.11c-1.65.1-3.16.48-4.67.79l-4.7-8.83c-3.06.89-6.03,2.01-8.86,3.38l2.19,10.15c-1.5.7-2.77,1.61-4.05,2.45l-7.82-6.66.56-.45c-2.58,1.89-5,4-7.23,6.29l5.45,8.79c-1.17,1.16-2.07,2.44-2.99,3.67l-9.53-3.62c-1.66,2.55-3.13,5.25-4.38,8.06l8,6.29c-.7,1.5-1.1,3-1.56,4.47l-9.96-.14c-.69,3.04-1.14,6.16-1.33,9.36l9.51,2.72c-.04.67-.02,1.32.02,1.96h36.78c-.04-.4-.07-.82-.07-1.23,0-6.1,4.77-11.07,10.79-11.41h1.83v-46.37ZM57.19,120.66c-9.13,1.86-16.31,9.06-18.15,18.19h-15.97c2.11-17.87,16.26-32.04,34.12-34.17v15.97Z" fill="#fff"/>
</svg>