<?xml version="1.0" encoding="UTF-8" standalone="no"?>
<!-- Created with Inkscape (http://www.inkscape.org/) -->

<svg
   version="1.1"
   id="svg1"
   width="804.87463"
   height="267.58078"
   viewBox="0 0 804.87463 267.58078"
   sodipodi:docname="Square Enix (Stacked).svg"
   xml:space="preserve"
   inkscape:version="1.3.2 (091e20e, 2023-11-25, custom)"
   xmlns:inkscape="http://www.inkscape.org/namespaces/inkscape"
   xmlns:sodipodi="http://sodipodi.sourceforge.net/DTD/sodipodi-0.dtd"
   xmlns="http://www.w3.org/2000/svg"
   xmlns:svg="http://www.w3.org/2000/svg"><defs
     id="defs1" /><sodipodi:namedview
     id="namedview1"
     pagecolor="#ffffff"
     bordercolor="#000000"
     borderopacity="0.25"
     inkscape:showpageshadow="2"
     inkscape:pageopacity="0.0"
     inkscape:pagecheckerboard="0"
     inkscape:deskcolor="#d1d1d1"
     inkscape:zoom="0.81265509"
     inkscape:cx="403"
     inkscape:cy="131.05191"
     inkscape:window-width="1366"
     inkscape:window-height="705"
     inkscape:window-x="-8"
     inkscape:window-y="-8"
     inkscape:window-maximized="1"
     inkscape:current-layer="svg1" /><g
     inkscape:label="レイヤー 1"
     id="layer1"
     transform="matrix(3.7795275,0,0,3.7795275,74.81083,96.259928)"><path
       style="fill:#b80000;fill-opacity:1;fill-rule:nonzero;stroke:none;stroke-width:1.41112"
       d="m 47.675799,26.326697 h 11.228368 v 5.87545 H 47.675799 Z m 0,0"
       id="path1668" /><path
       style="display:inline;fill:#b80000;fill-opacity:1;fill-rule:nonzero;stroke:none;stroke-width:1.41112"
       d="m 178.98059,-13.067357 h 11.30704 v 5.9109755 h -11.30704 z m 0,0"
       id="path1670" /><path
       style="display:inline;fill:#000000;fill-opacity:1;fill-rule:nonzero;stroke:none;stroke-width:1.41112"
       d="M 44.347457,-25.468608 H 26.314158 c -5.642816,0 -7.445064,1.52332 -7.445064,7.445032 v 16.6172592 c 0,5.9324575 1.802248,7.4557987 7.445064,7.4557987 h 5.707157 v 4.3125401 h 6.629689 V 6.0494819 h 5.696453 c 5.642817,0 7.445045,-1.5233412 7.445045,-7.4557987 V -18.023576 c 0,-5.921712 -1.802228,-7.445032 -7.445045,-7.445032 z M 44.809093,0.12777356 H 38.651316 V -3.2622094 H 32.021627 V 0.12777356 H 25.853145 V -20.061828 H 44.809093 V 0.12777356"
       id="path1672" /><path
       style="display:inline;fill:#000000;fill-opacity:1;fill-rule:nonzero;stroke:none;stroke-width:1.41112"
       d="M 80.907551,0.12777356 H 64.290298 V -25.468608 h -6.98374 v 24.0622912 c 0,5.9324575 1.802248,7.4557987 7.445064,7.4557987 h 15.694682 c 5.642816,0 7.445064,-1.5233412 7.445064,-7.4557987 V -25.468608 H 80.907551 V 0.12777356"
       id="path1674" /><path
       style="display:inline;fill:#000000;fill-opacity:1;fill-rule:nonzero;stroke:none;stroke-width:1.41112"
       d="M 105.63502,-25.468608 89.650683,6.0494819 h 6.565465 l 3.29332,-6.90867471 h 17.904652 l 3.40069,6.90867471 h 7.39143 L 111.9966,-25.468608 Z m -3.33635,18.9344578 6.2972,-12.8303938 6.07191,12.8303938 h -12.36911"
       id="path1676" /><path
       style="display:inline;fill:#000000;fill-opacity:1;fill-rule:nonzero;stroke:none;stroke-width:1.41112"
       d="m 153.51297,-5.8690561 c 4.59145,0 6.74771,-1.7056936 6.74771,-6.1040649 v -7.391423 c 0,-4.387628 -2.15626,-6.104064 -6.74771,-6.104064 H 131.05978 V 6.0494819 h 6.8658 v -11.918538 h 4.63434 l 10.83503,11.918538 h 9.46186 l -12.03655,-11.918538 z m -15.58739,-5.3638549 v -8.796758 h 12.4441 c 2.1456,0 3.14329,0.429095 3.14329,2.499569 v 3.786908 c 0,2.081177 -0.99769,2.510281 -3.14329,2.510281 h -12.4441"
       id="path1678" /><path
       style="fill:#000000;fill-opacity:1;fill-rule:nonzero;stroke:none;stroke-width:1.41112"
       d="m 41.928309,19.342266 h 19.535074 v -5.34229 H 34.997142 v 31.328669 h 26.764849 v -5.88612 H 41.928309 V 19.342266"
       id="path1680" /><path
       style="fill:#000000;fill-opacity:1;fill-rule:nonzero;stroke:none;stroke-width:1.41112"
       d="m 90.040909,30.453383 c 0,0.97036 0.117617,2.793784 0.287852,5.406282 C 89.294427,34.580078 71.604007,13.999976 71.604007,13.999976 h -4.734378 v 31.328669 h 6.237942 V 28.384721 c 0,-0.906379 -0.05417,-2.548546 -0.287853,-4.969107 0.810398,0.959713 18.724755,21.913031 18.724755,21.913031 h 4.745114 V 13.999976 h -6.248678 v 16.453407"
       id="path1682" /><path
       style="fill:#000000;fill-opacity:1;fill-rule:nonzero;stroke:none;stroke-width:1.41112"
       d="m 102.02648,13.999976 h 6.94176 v 31.328669 h -6.94176 z m 0,0"
       id="path1684" /><path
       style="fill:#000000;fill-opacity:1;fill-rule:nonzero;stroke:none;stroke-width:1.41112"
       d="m 134.28279,28.384721 12.36944,-14.384745 h -7.5923 l -8.62655,10.620598 -9.07447,-10.620598 h -8.74384 l 13.69161,15.237805 -13.46767,16.090864 h 7.80546 l 9.57565,-12.145463 10.38601,12.145463 h 8.9678 L 134.28279,28.384721"
       id="path1686" /><path
       style="display:inline;fill:#000000;fill-opacity:1;fill-rule:nonzero;stroke:none;stroke-width:1.41112"
       d="m 173.2198,-20.094018 h 19.64246 v -5.37459 h -26.6262 V 6.0494819 h 26.92666 V 0.12777356 H 173.2198 V -20.094018"
       id="path1688" /><path
       style="display:inline;fill:#000000;fill-opacity:1;fill-rule:nonzero;stroke:none;stroke-width:1.41112"
       d="M 6.3819636,-13.196078 H -12.348635 v -6.855038 H 7.3046124 v 2.896494 l 6.1791856,-0.0109 v -1.40534 c 0,-5.428228 -2.1027,-6.897911 -7.455807,-6.897911 h -17.035703 c -5.642816,0 -7.445064,1.52332 -7.445064,7.445033 v 3.486514 c 0,5.9217086 1.802248,7.4557951 7.445064,7.4557951 H 7.7229649 V 0.12761008 H -13.678894 v -0.0217973 h -6.114805 c 0.32151,4.66653592 2.327952,5.94315532 7.455806,5.94315532 H 6.3819636 c 5.6428164,0 7.4987014,-1.5233412 7.4987014,-7.4557987 v -4.3332166 c 0,-5.9217108 -1.855885,-7.4557738 -7.4987014,-7.4557738"
       id="path1690" /></g></svg>
