<?xml version="1.0" encoding="UTF-8"?>
<svg id="Final" xmlns="http://www.w3.org/2000/svg" width="160" height="160" viewBox="0 0 160 160">
  <path d="M143.82,69.54c0,.73-.13,1.41-.39,2.03-.26.62-.62,1.17-1.07,1.62s-1,.81-1.62,1.07c-.62.26-1.3.39-2.03.39h-36.64c-.94,0-1.95-.11-3.03-.33-1.08-.22-2.15-.57-3.2-1.04s-2.06-1.07-3.03-1.82c-.96-.74-1.82-1.64-2.56-2.7s-1.33-2.28-1.78-3.67c-.44-1.39-.66-2.96-.66-4.71v-27.5c0-.94.11-1.95.33-3.03.22-1.08.57-2.15,1.04-3.2s1.08-2.06,1.84-3.03c.75-.96,1.66-1.82,2.71-2.56s2.27-1.33,3.65-1.78c1.38-.44,2.94-.66,4.69-.66h41.29v10.16h-41.29c-1.33,0-2.34.35-3.05,1.05s-1.05,1.75-1.05,3.12v27.42c0,1.3.36,2.31,1.07,3.03.72.72,1.72,1.07,3.03,1.07h31.6v-12.73h-27.03v-10.23h32.07c.73,0,1.41.14,2.03.41s1.17.64,1.62,1.11c.46.47.81,1.01,1.07,1.62.26.61.39,1.27.39,1.97v22.89Z" fill="#f59e0b"/>
  <path d="M144.36,112.11c0,2.32-.29,4.39-.86,6.21-.57,1.82-1.35,3.43-2.32,4.82-.98,1.39-2.1,2.58-3.38,3.57-1.28.99-2.61,1.8-4,2.42-1.39.62-2.8,1.08-4.22,1.37-1.42.29-2.75.43-4,.43h-22.97v-10.16h22.97c1.3-.1,2.48-.37,3.54-.8s1.96-1.01,2.71-1.74c.75-.73,1.34-1.61,1.76-2.64.42-1.03.62-2.19.62-3.5v-4.61c-.13-1.28-.4-2.45-.82-3.52-.42-1.07-.98-1.98-1.7-2.73-.72-.75-1.58-1.35-2.6-1.78s-2.19-.64-3.52-.64h-22.89c-1.35,0-2.38.35-3.09,1.05s-1.05,1.72-1.05,3.05v41.76h-10.16v-41.76c0-2.6.47-4.82,1.43-6.64.95-1.82,2.13-3.29,3.55-4.41,1.42-1.12,2.96-1.93,4.63-2.44,1.67-.51,3.2-.76,4.61-.76h22.97c2.29,0,4.35.29,6.17.88,1.82.59,3.43,1.37,4.82,2.34,1.39.98,2.58,2.1,3.55,3.38.98,1.28,1.78,2.61,2.42,4,.64,1.39,1.1,2.8,1.39,4.22.29,1.42.43,2.75.43,4v4.61Z" fill="#f59e0b"/>
  <polygon points="76.72 2.9 76.72 7.61 76.72 21.93 76.72 58.88 76.72 88.03 76.72 133.96 76.72 150.76 76.72 157.1 83.28 157.1 83.28 2.9 76.72 2.9" fill="#f59e0b"/>
  <g>
    <path d="M23.87,78.77c1.87.17,8.24.72,11.89-3.95s8.22-16.5,10.06-18.59c1.24.8,3.96,2.47,7.39,2.5s6.5-.38,9.04-2.72l9.7-.08V18.64h-17.88s-8.9,1.78-10.27-1.61c0,0-7.68-2.75-13.45.34v-.09l-.1.98s-1.24-.44-2.77,1.98-4.75,6.54-6.24,12.06c-1.49,5.52-4.88,17.79-5.22,19.06-.34,1.27-2.21,12.52-.64,18.85,1.57,6.33,6.62,8.41,8.49,8.58ZM42.57,40.34c0,.64-.52,1.16-1.16,1.16h-2.61c-.64,0-1.16-.52-1.16-1.16v-2.53c0-.28.11-.53.28-.74.01-.02.01-.04.03-.06l1.82-2.12c.17-.2.49-.2.66,0l1.82,2.12s.01.04.03.06c.17.2.28.45.28.74v2.53ZM53.63,40.9c2.95,0,5.35,2.39,5.35,5.35s-2.39,5.35-5.35,5.35-5.35-2.39-5.35-5.35,2.39-5.35,5.35-5.35ZM43.13,31.88c.2-.17.45-.28.74-.28h2.53c.64,0,1.16.52,1.16,1.16v2.61c0,.64-.52,1.16-1.16,1.16h-2.53c-.28,0-.53-.11-.74-.28-.02-.01-.04-.01-.06-.03l-2.12-1.82c-.2-.17-.2-.49,0-.66l2.12-1.82s.04-.01.06-.03ZM37.65,27.78c0-.64.52-1.16,1.16-1.16h2.61c.64,0,1.16.52,1.16,1.16v2.53c0,.28-.11.53-.28.74-.01.02-.01.04-.03.06l-1.82,2.12c-.17.2-.49.2-.66,0l-1.82-2.12s-.01-.04-.03-.06c-.17-.2-.28-.45-.28-.74v-2.53ZM32.67,32.75c0-.64.52-1.16,1.16-1.16h2.53c.28,0,.53.11.74.28.02.01.04.01.06.03l2.12,1.82c.2.17.2.49,0,.66l-2.12,1.82s-.04.01-.06.03c-.2.17-.45.28-.74.28h-2.53c-.64,0-1.16-.52-1.16-1.16v-2.61Z" fill="#f59e0b"/>
    <path d="M72,85.68h-1.79s0,0-.01,0h-.1c-1.48.02-2.95.1-4.4.22l-1.66,10.11c-1.65.1-3.16.48-4.67.79l-4.7-8.83c-3.06.89-6.03,2.01-8.86,3.38l2.19,10.15c-1.5.7-2.77,1.61-4.05,2.45l-7.82-6.66.56-.45c-2.58,1.89-5,4-7.23,6.29l5.45,8.79c-1.17,1.16-2.07,2.44-2.99,3.67l-9.53-3.62c-1.66,2.55-3.13,5.25-4.38,8.06l8,6.29c-.7,1.5-1.1,3-1.56,4.47l-9.96-.14c-.69,3.04-1.14,6.16-1.33,9.36l9.51,2.72c-.04.67-.02,1.32.02,1.96h36.78c-.04-.4-.07-.82-.07-1.23,0-6.1,4.77-11.07,10.79-11.41h1.83v-46.37ZM66.15,120.64c-9.13,1.86-16.31,9.06-18.15,18.19h-15.97c2.11-17.87,16.26-32.04,34.12-34.17v15.97Z" fill="#f59e0b"/>
  </g>
</svg>